<?xml version="1.0" encoding="utf-8"?>
<!-- Generator: Adobe Illustrator 25.2.3, SVG Export Plug-In . SVG Version: 6.00 Build 0)  -->
<svg version="1.1" id="Layer_1" xmlns="http://www.w3.org/2000/svg" xmlns:xlink="http://www.w3.org/1999/xlink" x="0px" y="0px"
	 viewBox="0 0 253.1 98" style="enable-background:new 0 0 253.1 98;" xml:space="preserve">
<style type="text/css">
	.st0{fill:#FF2400;}
	.st1{fill:#00CFA6;}
</style>
<g>
	<path class="st0" d="M68.1,8.4c0,4.6-3.7,8.3-8.3,8.3c-4.6,0-8.3-3.7-8.3-8.3s3.7-8.3,8.3-8.3c0,0,0,0,0,0c4.6,0,8.3,3.6,8.3,8.2
		C68.2,8.3,68.2,8.4,68.1,8.4z M51.5,23.4c0.1-1.9,1.6-3.5,3.6-3.6h9.5c1.9,0.1,3.5,1.6,3.6,3.6V62H51.7L51.5,23.4z M123.1,27
		c0-2,1.6-3.5,3.6-3.6h21c1.9,0.1,3.5,1.6,3.6,3.6v7.4c0,2-1.6,3.5-3.6,3.6h-21c-2,0-3.5-1.6-3.6-3.6V27z M118.6,22.8
		C118.4,10,107.9-0.2,95.2,0C82.8,0.2,72.7,10.1,72.4,22.5V62h17.1V23c0-3.5,2.7-6.3,6.2-6.4c3.4,0,6.2,2.8,6.2,6.2
		c0,0.1,0,0.2,0,0.2v39h16.4v-1.4L118.6,22.8z M17.4,62H1V25.1c0-6.9,1.7-12.4,5.2-16.7c2.1-2.6,4.8-4.6,7.9-5.9
		c3.1-1.4,6.4-2.1,9.8-2.1c12.6-0.3,23,9.6,23.3,22.2c0,0.3,0,0.6,0,0.9c0.1,6.1-2.3,12.1-6.6,16.4c-4.1,4.4-9.9,6.9-15.9,6.9
		c-1.4,0-2.7-0.1-4.1-0.2V28.4c1.1,0.7,2.3,1.1,3.6,1.2c1.6,0,3.2-0.7,4.3-1.9c1.2-1.2,1.9-2.8,1.9-4.5c0-3.5-2.9-6.4-6.4-6.4
		c-4.3,0-6.4,2.9-6.4,8.8L17.4,62z M206.5,62h16.7V25.6c0-6,2.1-8.8,6.4-8.8c3.5,0,6.4,2.9,6.4,6.4c0,1.7-0.7,3.3-1.9,4.5
		c-1.1,1.2-2.7,1.9-4.3,1.9c-1.3-0.1-2.5-0.5-3.6-1.2v18.1c1.3,0.2,2.7,0.2,4,0.2c6,0,11.8-2.5,16-6.9c4.4-4.3,6.8-10.3,6.7-16.4
		c0.2-12.6-9.9-22.9-22.4-23.1c-0.3,0-0.6,0-0.9,0c-3.4,0-6.7,0.8-9.8,2.1c-3,1.4-5.7,3.4-7.9,5.9c-3.6,4.3-5.2,9.8-5.2,16.7
		L206.5,62L206.5,62z M155.8,39.7V2.2l0.2-0.7h17.2v37.6c-0.1,3.4,2.6,6.3,6,6.4c0.1,0,0.1,0,0.2,0c3.5-0.1,6.2-2.9,6.2-6.4V1.5H202
		v37.8C202,52,191.5,62,178.9,62C166.4,62.1,156.1,52.1,155.8,39.7L155.8,39.7z"/>
	<g>
		<path class="st1" d="M0,69v15c0,7.7,6.3,14,14,14h225.1c7.7,0,14-6.3,14-14V69H0z M62.9,90c2.1,0,4-1,5-2.8l2.7,1.7
			c-1.6,2.7-4.5,4.4-7.7,4.3c0,0,0,0,0,0h0c0,0,0,0,0,0c-5.9,0-9.6-4.2-9.6-9.7c0-0.2,0-0.3,0-0.5c0.1-5.2,4.4-9.4,9.6-9.3
			c3.1-0.1,6.1,1.4,7.7,4.1l-2.7,1.8c-1.1-1.7-3-2.8-5-2.7c-3.7,0-6.1,2.9-6.1,6.6S59.2,90,62.9,90z M95.1,92.9l-1.6-4.1h-7.6
			l-1.6,4.1h-3.6l8.2-19.1h1.6l8.3,19.1H95.1z M115.5,93.3L115.5,93.3c-3.6,0-5.8-1.6-6.6-4.7l3.1-1.2c0.3,1.7,1.9,2.9,3.7,2.8
			c1.8,0,2.9-1,2.9-2.4c0-1.5-0.8-2.3-3.8-3c-3.7-0.9-5.4-2.6-5.4-5.7c0-3.1,2.3-5.3,6.1-5.3c3,0,5,1.3,5.9,3.9l-3.1,1.3
			c-0.3-1.3-1.6-2.2-3-2c-1.5,0-2.5,0.8-2.5,1.9c0.1,1.4,0.8,2,4.1,2.8c3.6,1,5.2,2.8,5.2,5.9C122,91.1,119.5,93.3,115.5,93.3z
			 M138.4,92.9h-3.6v0V74.2h3.6V92.9z M167.9,93h-1.6l-10.5-12v11.9h-3.4V74h1.6l10.5,12V74.2l3.4,0V93z M190.2,93.3L190.2,93.3
			c-5.9,0-9.6-4.3-9.6-9.7c0-0.1,0-0.3,0-0.4c0.1-5.2,4.4-9.4,9.6-9.3c5.9,0,9.6,4.3,9.6,9.7c0,0.2,0,0.3,0,0.5
			C199.7,89.2,195.4,93.4,190.2,93.3z"/>
		<path class="st1" d="M190.2,77c-3.6,0-6,2.8-6,6.5s2.4,6.5,6,6.5v0c3.6,0,6-2.8,6-6.5C196.2,79.8,193.8,77,190.2,77z"/>
		<polygon class="st1" points="87,85.9 92.3,85.9 89.7,79.3 		"/>
	</g>
</g>
</svg>
