<?xml version="1.0" standalone="no"?>
<!DOCTYPE svg PUBLIC "-//W3C//DTD SVG 20010904//EN"
 "http://www.w3.org/TR/2001/REC-SVG-20010904/DTD/svg10.dtd">
<svg version="1.0" xmlns="http://www.w3.org/2000/svg"
 width="208.000000pt" height="68.000000pt" viewBox="0 0 208.000000 68.000000"
 preserveAspectRatio="xMidYMid meet">
<metadata>
Created by potrace 1.16, written by Peter Selinger 2001-2019
</metadata>
<g transform="translate(0.000000,68.000000) scale(0.100000,-0.100000)"
fill="#000000" stroke="none">
<path d="M1224 664 c-134 -48 -195 -200 -120 -299 15 -19 64 -57 109 -83 91
-54 107 -81 66 -118 -27 -24 -135 -25 -193 0 -21 9 -42 16 -46 16 -10 0 -42
-139 -35 -150 18 -29 239 -40 321 -15 98 29 163 112 164 208 0 82 -36 128
-155 195 -56 31 -71 45 -73 66 -3 22 2 29 35 42 33 14 47 15 98 4 101 -20 97
-21 111 40 19 82 18 85 -25 98 -53 16 -207 14 -257 -4z"/>
<path d="M0 657 c0 -7 34 -23 77 -36 42 -13 86 -34 98 -45 15 -15 39 -97 89
-293 l69 -273 96 0 96 0 129 313 c71 171 131 320 134 330 4 16 -3 18 -89 15
l-94 -3 -79 -203 c-44 -111 -83 -199 -86 -195 -4 5 -22 87 -39 183 -43 234
-28 220 -238 220 -125 0 -163 -3 -163 -13z"/>
<path d="M855 658 c-6 -17 -135 -629 -135 -640 0 -4 40 -8 88 -8 l89 0 62 292
c34 161 64 310 68 331 l6 37 -87 0 c-60 0 -88 -4 -91 -12z"/>
<path d="M1743 648 c-11 -13 -70 -144 -131 -293 -61 -148 -118 -287 -127 -308
l-16 -38 97 3 97 3 15 43 14 42 104 0 104 0 6 -28 c14 -65 9 -62 95 -62 62 0
79 3 79 14 0 12 -108 550 -125 624 -5 21 -10 22 -98 22 -84 0 -96 -2 -114 -22z"/>
</g>
</svg>
