<svg xmlns="http://www.w3.org/2000/svg" viewBox="0 0 120 120" role="img" aria-label="Snoop Dogg Dollars">
  <defs>
    <linearGradient id="bg" x1="18" y1="12" x2="104" y2="110" gradientUnits="userSpaceOnUse">
      <stop stop-color="#173d2c"/>
      <stop offset="0.55" stop-color="#0b1711"/>
      <stop offset="1" stop-color="#050806"/>
    </linearGradient>
    <linearGradient id="gold" x1="37" y1="24" x2="82" y2="98" gradientUnits="userSpaceOnUse">
      <stop stop-color="#fff2a8"/>
      <stop offset="0.35" stop-color="#f8cf57"/>
      <stop offset="1" stop-color="#a9680b"/>
    </linearGradient>
  </defs>
  <rect width="120" height="120" rx="28" fill="url(#bg)"/>
  <rect x="4" y="4" width="112" height="112" rx="24" fill="none" stroke="#34d399" stroke-opacity="0.55" stroke-width="4"/>
  <path d="M65 19v13c15 2 25 10 27 23H73c-1-5-5-8-12-8-7 0-11 3-11 7 0 5 5 7 17 10 18 4 27 12 27 27 0 15-11 25-29 28v12H52v-12c-17-2-28-11-30-27h19c2 7 7 11 15 11 9 0 14-4 14-9 0-5-5-8-18-11-17-4-26-12-26-26 0-14 10-24 26-27V19h13Z" fill="url(#gold)"/>
</svg>
